<?xml version="1.0" encoding="UTF-8"?>
<!DOCTYPE svg PUBLIC "-//W3C//DTD SVG 1.1//EN" "http://www.w3.org/Graphics/SVG/1.1/DTD/svg11.dtd">
<svg xmlns="http://www.w3.org/2000/svg" version="1.1" width="500px" height="500px" style="shape-rendering:geometricPrecision; text-rendering:geometricPrecision; image-rendering:optimizeQuality; fill-rule:evenodd; clip-rule:evenodd" xmlns:xlink="http://www.w3.org/1999/xlink">
<g><path style="opacity:1" fill="#b4bbc4" d="M 225.5,-0.5 C 241.5,-0.5 257.5,-0.5 273.5,-0.5C 335.03,6.76628 387.363,32.4329 430.5,76.5C 431.08,78.7488 432.413,80.4154 434.5,81.5C 446.783,94.0676 457.116,108.068 465.5,123.5C 465.427,125.027 466.094,126.027 467.5,126.5C 477.294,143.095 484.627,160.761 489.5,179.5C 489.41,182.152 490.076,184.485 491.5,186.5C 495.135,199.314 497.802,212.314 499.5,225.5C 499.5,241.5 499.5,257.5 499.5,273.5C 498.833,273.5 498.5,273.833 498.5,274.5C 497.199,278.943 496.532,283.609 496.5,288.5C 480.806,376.344 432.806,439.51 352.5,478C 327.191,489.388 300.857,496.555 273.5,499.5C 257.167,499.5 240.833,499.5 224.5,499.5C 205.488,497.082 186.821,492.749 168.5,486.5C 167.365,484.787 165.698,484.12 163.5,484.5C 147.509,479.004 132.509,471.67 118.5,462.5C 118.027,461.094 117.027,460.427 115.5,460.5C 109.387,456.938 103.387,453.104 97.5,449C 95.0929,446.817 92.7596,444.65 90.5,442.5C 90.0269,441.094 89.0269,440.427 87.5,440.5C 85.5,439.167 83.8333,437.5 82.5,435.5C 81.0892,433.086 79.0892,431.419 76.5,430.5C 62.8442,417.501 50.8442,403.168 40.5,387.5C 40.7148,385.821 40.0481,384.821 38.5,384.5C 19.6035,355.151 7.60349,323.151 2.5,288.5C 2.56214,283.924 1.89548,279.591 0.5,275.5C 0.5,274.833 0.166667,274.5 -0.5,274.5C -0.5,257.833 -0.5,241.167 -0.5,224.5C 1.28259,212.824 3.61593,201.157 6.5,189.5C 8.2766,186.495 9.2766,183.162 9.5,179.5C 15.7536,155.669 25.7536,133.669 39.5,113.5C 40.9063,113.027 41.573,112.027 41.5,110.5C 41.7376,108.596 42.7376,107.262 44.5,106.5C 45.9063,106.027 46.573,105.027 46.5,103.5C 46.7376,101.596 47.7376,100.262 49.5,99.5C 50.9063,99.0269 51.573,98.0269 51.5,96.5C 52.7997,93.5677 54.7997,91.2344 57.5,89.5C 58.9063,89.0269 59.573,88.0269 59.5,86.5C 60.8333,84.5 62.5,82.8333 64.5,81.5C 66.5869,80.4154 67.9202,78.7488 68.5,76.5C 69.5,74.8333 70.8333,73.5 72.5,72.5C 76.1002,70.5698 79.1002,67.9031 81.5,64.5C 81.8333,63.5 82.5,62.8333 83.5,62.5C 86.4274,61.2427 88.7607,59.2427 90.5,56.5C 98.9928,48.6765 108.326,42.0098 118.5,36.5C 120.027,36.573 121.027,35.9063 121.5,34.5C 135.558,25.6398 150.558,18.6398 166.5,13.5C 169.716,13.6545 172.383,12.6545 174.5,10.5C 174.833,10.5 175.167,10.5 175.5,10.5C 178.152,10.5905 180.485,9.92381 182.5,8.5C 185.152,8.59047 187.485,7.92381 189.5,6.5C 201.489,3.60173 213.489,1.26839 225.5,-0.5 Z M 299.5,75.5 C 301.509,77.0652 303.843,78.0652 306.5,78.5C 307.93,79.5375 309.597,80.2041 311.5,80.5C 314.54,82.3459 317.873,83.6792 321.5,84.5C 321.973,85.9063 322.973,86.573 324.5,86.5C 327.35,89.5553 329.683,92.8886 331.5,96.5C 332.08,100.81 332.414,105.143 332.5,109.5C 331.065,114.473 329.398,119.473 327.5,124.5C 326.094,124.973 325.427,125.973 325.5,127.5C 322.833,129.5 320.5,131.833 318.5,134.5C 316.973,134.427 315.973,135.094 315.5,136.5C 310.997,138.278 306.331,138.778 301.5,138C 296.479,136.153 291.479,134.32 286.5,132.5C 285.22,131.069 283.553,130.402 281.5,130.5C 281.158,129.662 280.492,129.328 279.5,129.5C 276.909,128.009 275.909,125.675 276.5,122.5C 283.346,107.463 289.679,92.1296 295.5,76.5C 296.833,76.1667 298.167,75.8333 299.5,75.5 Z M 205.5,77.5 C 208.162,78.4986 210.828,79.4986 213.5,80.5C 213.973,81.9063 214.973,82.573 216.5,82.5C 228.329,94.8582 230.662,108.858 223.5,124.5C 220.833,126.5 218.5,128.833 216.5,131.5C 207.775,135.866 198.775,136.533 189.5,133.5C 188.71,132.599 187.71,131.932 186.5,131.5C 183.833,129.167 181.167,126.833 178.5,124.5C 178.573,122.973 177.906,121.973 176.5,121.5C 168.023,103.037 172.356,88.704 189.5,78.5C 194.797,77.7255 200.13,77.3921 205.5,77.5 Z M 113.5,140.5 C 114.11,141.391 114.443,142.391 114.5,143.5C 112.091,144.701 110.091,146.367 108.5,148.5C 107.167,148.5 106.5,149.167 106.5,150.5C 103.836,152.484 102.169,155.151 101.5,158.5C 98.8333,163.5 98.8333,168.5 101.5,173.5C 101.66,175.153 102.326,176.486 103.5,177.5C 104.026,179.23 105.026,180.564 106.5,181.5C 106.973,182.906 107.973,183.573 109.5,183.5C 111.748,186.393 114.748,188.06 118.5,188.5C 123.19,190.959 127.857,190.959 132.5,188.5C 139.822,186.01 144.656,181.01 147,173.5C 147.494,171.866 147.66,170.199 147.5,168.5C 148.234,167.122 148.901,165.622 149.5,164C 150.784,163.316 151.951,163.483 153,164.5C 152.884,169.586 152.051,174.586 150.5,179.5C 149.094,179.973 148.427,180.973 148.5,182.5C 146.196,185.141 143.862,187.808 141.5,190.5C 139.973,190.427 138.973,191.094 138.5,192.5C 132.403,194.877 126.07,195.877 119.5,195.5C 116.169,194.385 112.836,193.051 109.5,191.5C 108.71,190.599 107.71,189.932 106.5,189.5C 104.525,187.863 102.525,186.196 100.5,184.5C 100.573,182.973 99.9063,181.973 98.5,181.5C 98.3404,179.847 97.6737,178.514 96.5,177.5C 96.405,175.214 95.7384,173.214 94.5,171.5C 94.5401,166.807 94.8734,162.141 95.5,157.5C 96.8831,154.406 98.5498,151.406 100.5,148.5C 101.906,148.027 102.573,147.027 102.5,145.5C 105.532,142.485 109.199,140.818 113.5,140.5 Z M 397.5,148.5 C 397.932,149.71 398.599,150.71 399.5,151.5C 399.427,153.027 400.094,154.027 401.5,154.5C 404.663,161.496 408.329,168.162 412.5,174.5C 412.833,177.5 411.5,178.833 408.5,178.5C 408.573,176.973 407.906,175.973 406.5,175.5C 406.267,173.938 405.6,172.605 404.5,171.5C 404.573,169.973 403.906,168.973 402.5,168.5C 401.674,165.515 400.341,162.849 398.5,160.5C 398.573,158.973 397.906,157.973 396.5,157.5C 396.585,156.005 395.919,155.005 394.5,154.5C 391.941,155.608 389.608,156.941 387.5,158.5C 385.973,158.427 384.973,159.094 384.5,160.5C 382.847,160.66 381.514,161.326 380.5,162.5C 379.351,162.791 378.684,163.624 378.5,165C 378.387,166.699 379.053,167.866 380.5,168.5C 382.916,173.667 385.582,178.667 388.5,183.5C 388.778,185.346 388.111,186.68 386.5,187.5C 385.148,186.476 383.815,185.476 382.5,184.5C 382.008,182.181 381.008,180.181 379.5,178.5C 379.573,176.973 378.906,175.973 377.5,175.5C 377.008,173.181 376.008,171.181 374.5,169.5C 373.756,166.116 372.423,165.782 370.5,168.5C 367.515,169.326 364.849,170.659 362.5,172.5C 360.973,172.427 359.973,173.094 359.5,174.5C 358.508,174.328 357.842,174.662 357.5,175.5C 354.22,176.732 353.886,178.399 356.5,180.5C 359.663,187.496 363.329,194.162 367.5,200.5C 367.315,202.196 366.481,203.529 365,204.5C 363.961,203.29 362.794,202.29 361.5,201.5C 361.672,200.508 361.338,199.842 360.5,199.5C 360.573,197.973 359.906,196.973 358.5,196.5C 357.674,193.515 356.341,190.849 354.5,188.5C 354.573,186.973 353.906,185.973 352.5,185.5C 352.34,183.847 351.674,182.514 350.5,181.5C 350.573,179.973 349.906,178.973 348.5,178.5C 348.5,178.167 348.5,177.833 348.5,177.5C 348.392,175.486 349.058,173.82 350.5,172.5C 351.492,172.672 352.158,172.338 352.5,171.5C 354.027,171.573 355.027,170.906 355.5,169.5C 360.667,167.084 365.667,164.418 370.5,161.5C 372.027,161.573 373.027,160.906 373.5,159.5C 378,157.417 382.334,155.084 386.5,152.5C 388.674,152.25 390.341,151.25 391.5,149.5C 393.435,148.85 395.435,148.517 397.5,148.5 Z M 113.5,264.5 C 113.5,265.167 113.833,265.5 114.5,265.5C 114.747,267.858 114.081,269.858 112.5,271.5C 110.379,271.675 108.379,271.341 106.5,270.5C 106.392,268.486 107.058,266.82 108.5,265.5C 110.117,264.962 111.784,264.629 113.5,264.5 Z M 384.5,264.5 C 386.921,264.878 389.254,265.545 391.5,266.5C 391.872,269.022 391.039,271.022 389,272.5C 387.22,271.361 385.386,270.361 383.5,269.5C 383.629,267.784 383.962,266.117 384.5,264.5 Z M 351.5,314.5 C 352.026,316.23 353.026,317.564 354.5,318.5C 355.11,320.434 356.11,322.101 357.5,323.5C 358.026,325.23 359.026,326.564 360.5,327.5C 362.919,332.009 365.586,336.342 368.5,340.5C 369.026,342.23 370.026,343.564 371.5,344.5C 373.919,349.009 376.586,353.342 379.5,357.5C 380.026,359.23 381.026,360.564 382.5,361.5C 385.294,365.423 387.294,369.757 388.5,374.5C 386.596,374.738 385.262,375.738 384.5,377.5C 383.508,377.328 382.842,377.662 382.5,378.5C 380.596,378.738 379.262,379.738 378.5,381.5C 377.508,381.328 376.842,381.662 376.5,382.5C 374.973,382.427 373.973,383.094 373.5,384.5C 371.973,384.427 370.973,385.094 370.5,386.5C 369.508,386.328 368.842,386.662 368.5,387.5C 366.973,387.427 365.973,388.094 365.5,389.5C 363.973,389.427 362.973,390.094 362.5,391.5C 354.194,395.141 346.86,393.807 340.5,387.5C 340.573,385.973 339.906,384.973 338.5,384.5C 338.737,383.209 338.404,382.209 337.5,381.5C 337.643,379.738 337.309,378.071 336.5,376.5C 337.413,373.077 338.246,369.744 339,366.5C 334.573,366.751 330.073,366.417 325.5,365.5C 325.158,364.662 324.492,364.328 323.5,364.5C 323.027,363.094 322.027,362.427 320.5,362.5C 320.5,361.833 320.167,361.5 319.5,361.5C 319.262,359.596 318.262,358.262 316.5,357.5C 315.871,354.603 314.871,351.936 313.5,349.5C 313.704,346.482 314.037,343.482 314.5,340.5C 318.548,334.118 323.882,329.118 330.5,325.5C 332.027,325.573 333.027,324.906 333.5,323.5C 335.027,323.573 336.027,322.906 336.5,321.5C 340.262,319.587 343.929,317.421 347.5,315C 348.793,314.51 350.127,314.343 351.5,314.5 Z M 151.5,317.5 C 153.302,318.458 155.302,319.125 157.5,319.5C 157.833,319.5 158.167,319.5 158.5,319.5C 158.973,320.906 159.973,321.573 161.5,321.5C 161.842,322.338 162.508,322.672 163.5,322.5C 163.973,323.906 164.973,324.573 166.5,324.5C 166.973,325.906 167.973,326.573 169.5,326.5C 169.973,327.906 170.973,328.573 172.5,328.5C 172.842,329.338 173.508,329.672 174.5,329.5C 174.973,330.906 175.973,331.573 177.5,331.5C 177.973,332.906 178.973,333.573 180.5,333.5C 180.973,334.906 181.973,335.573 183.5,335.5C 184.925,336.922 185.925,338.589 186.5,340.5C 185.662,340.842 185.328,341.508 185.5,342.5C 184.094,342.973 183.427,343.973 183.5,345.5C 182.094,345.973 181.427,346.973 181.5,348.5C 180.094,348.973 179.427,349.973 179.5,351.5C 178.094,351.973 177.427,352.973 177.5,354.5C 176.662,354.842 176.328,355.508 176.5,356.5C 175.094,356.973 174.427,357.973 174.5,359.5C 173.094,359.973 172.427,360.973 172.5,362.5C 171.094,362.973 170.427,363.973 170.5,365.5C 169.094,365.973 168.427,366.973 168.5,368.5C 167.662,368.842 167.328,369.508 167.5,370.5C 166.094,370.973 165.427,371.973 165.5,373.5C 164.094,373.973 163.427,374.973 163.5,376.5C 162.094,376.973 161.427,377.973 161.5,379.5C 160.094,379.973 159.427,380.973 159.5,382.5C 158.094,382.973 157.427,383.973 157.5,385.5C 156.094,385.973 155.427,386.973 155.5,388.5C 154.662,388.842 154.328,389.508 154.5,390.5C 153.094,390.973 152.427,391.973 152.5,393.5C 151.094,393.973 150.427,394.973 150.5,396.5C 149.518,397.141 148.518,397.807 147.5,398.5C 145.466,397.441 143.466,396.441 141.5,395.5C 140.564,394.026 139.23,393.026 137.5,392.5C 133.342,389.586 129.009,386.919 124.5,384.5C 123.564,383.026 122.23,382.026 120.5,381.5C 119.167,379.5 117.5,377.833 115.5,376.5C 112.027,365.788 115.027,357.455 124.5,351.5C 127.813,350.955 131.146,350.455 134.5,350C 133.934,349.005 133.267,348.172 132.5,347.5C 131.736,344.982 130.736,342.649 129.5,340.5C 129.46,337.119 129.793,333.786 130.5,330.5C 131.737,329.035 132.737,327.368 133.5,325.5C 134.906,325.027 135.573,324.027 135.5,322.5C 137.027,322.573 138.027,321.906 138.5,320.5C 139.71,320.068 140.71,319.401 141.5,318.5C 144.807,317.949 148.14,317.616 151.5,317.5 Z M 214.5,344.5 C 217.443,345.367 220.443,346.367 223.5,347.5C 223.973,348.906 224.973,349.573 226.5,349.5C 227.512,350.872 228.512,352.205 229.5,353.5C 229.932,354.71 230.599,355.71 231.5,356.5C 231.328,357.492 231.662,358.158 232.5,358.5C 233.787,361.43 233.287,363.763 231,365.5C 229.595,364.269 228.429,362.936 227.5,361.5C 227.5,361.167 227.5,360.833 227.5,360.5C 227.573,358.973 226.906,357.973 225.5,357.5C 225.573,355.973 224.906,354.973 223.5,354.5C 221.66,352.331 219.326,350.998 216.5,350.5C 213.696,349.362 210.696,349.195 207.5,350C 205.68,350.2 204.347,351.034 203.5,352.5C 201.973,352.427 200.973,353.094 200.5,354.5C 198.738,355.262 197.738,356.596 197.5,358.5C 195.926,360.102 195.259,362.102 195.5,364.5C 193.723,369.947 192.39,375.614 191.5,381.5C 189.565,387.252 188.231,393.252 187.5,399.5C 186.2,403.001 185.034,406.667 184,410.5C 180.85,412.161 179.35,411.161 179.5,407.5C 180.943,403.385 181.943,399.052 182.5,394.5C 184.118,391.112 185.118,387.446 185.5,383.5C 186.975,378.6 187.975,373.6 188.5,368.5C 190.279,364.405 191.612,360.072 192.5,355.5C 194.833,352.5 197.5,349.833 200.5,347.5C 202.153,347.34 203.486,346.674 204.5,345.5C 207.807,344.949 211.14,344.616 214.5,344.5 Z M 282.5,346.5 C 283.833,346.5 285.167,346.5 286.5,346.5C 286.328,347.492 286.662,348.158 287.5,348.5C 288.74,357.123 290.74,365.456 293.5,373.5C 293.41,376.152 294.076,378.485 295.5,380.5C 296.262,382.262 297.596,383.262 299.5,383.5C 299.833,384.5 300.5,385.167 301.5,385.5C 302.262,387.262 303.596,388.262 305.5,388.5C 305.833,389.5 306.5,390.167 307.5,390.5C 308.585,392.587 310.251,393.92 312.5,394.5C 312.833,395.5 313.5,396.167 314.5,396.5C 315.262,398.262 316.596,399.262 318.5,399.5C 318.833,400.5 319.5,401.167 320.5,401.5C 322.294,403.797 324.294,405.963 326.5,408C 325.748,408.671 325.414,409.504 325.5,410.5C 324.041,410.567 322.708,410.234 321.5,409.5C 321.027,408.094 320.027,407.427 318.5,407.5C 315.208,404.51 311.874,401.51 308.5,398.5C 308.027,397.094 307.027,396.427 305.5,396.5C 304.833,395.167 303.833,394.167 302.5,393.5C 302.027,392.094 301.027,391.427 299.5,391.5C 298.833,390.167 297.833,389.167 296.5,388.5C 294.998,385.978 293.665,385.978 292.5,388.5C 291.069,389.78 290.402,391.447 290.5,393.5C 288.935,395.509 287.935,397.843 287.5,400.5C 286.463,401.93 285.796,403.597 285.5,405.5C 284.463,406.93 283.796,408.597 283.5,410.5C 282.069,411.78 281.402,413.447 281.5,415.5C 280.662,415.842 280.328,416.508 280.5,417.5C 279.326,418.514 278.66,419.847 278.5,421.5C 275.5,421.833 274.167,420.5 274.5,417.5C 280.066,405.484 285.066,393.151 289.5,380.5C 289.48,379.274 289.147,378.274 288.5,377.5C 288.706,374.505 288.04,371.838 286.5,369.5C 286.706,366.505 286.04,363.838 284.5,361.5C 283.673,356.523 283.006,351.523 282.5,346.5 Z"/></g>
<g><path style="opacity:0.886" fill="#d2d6db" d="M 189.5,6.5 C 187.485,7.92381 185.152,8.59047 182.5,8.5C 184.515,7.07619 186.848,6.40953 189.5,6.5 Z"/></g>
<g><path style="opacity:0.827" fill="#d4d8dd" d="M 182.5,8.5 C 180.485,9.92381 178.152,10.5905 175.5,10.5C 177.515,9.07619 179.848,8.40953 182.5,8.5 Z"/></g>
<g><path style="opacity:0.878" fill="#d1d5db" d="M 174.5,10.5 C 172.383,12.6545 169.716,13.6545 166.5,13.5C 168.936,12.129 171.603,11.129 174.5,10.5 Z"/></g>
<g><path style="opacity:0.773" fill="#d8dce1" d="M 121.5,34.5 C 121.027,35.9063 120.027,36.573 118.5,36.5C 118.973,35.0937 119.973,34.427 121.5,34.5 Z"/></g>
<g><path style="opacity:0.812" fill="#d2d6db" d="M 90.5,56.5 C 88.7607,59.2427 86.4274,61.2427 83.5,62.5C 85.2393,59.7573 87.5726,57.7573 90.5,56.5 Z"/></g>
<g><path style="opacity:0.835" fill="#d4d8de" d="M 81.5,64.5 C 79.1002,67.9031 76.1002,70.5698 72.5,72.5C 74.8998,69.0969 77.8998,66.4302 81.5,64.5 Z"/></g>
<g><path style="opacity:0.004" fill="#f0f0f1" d="M 299.5,75.5 C 298.167,75.8333 296.833,76.1667 295.5,76.5C 296.538,74.4805 297.872,74.1472 299.5,75.5 Z"/></g>
<g><path style="opacity:0.933" fill="#d8dbe0" d="M 299.5,75.5 C 302.491,75.1663 304.824,76.1663 306.5,78.5C 303.843,78.0652 301.509,77.0652 299.5,75.5 Z"/></g>
<g><path style="opacity:0.004" fill="#efeff1" d="M 205.5,77.5 C 200.13,77.3921 194.797,77.7255 189.5,78.5C 192.356,76.9942 195.523,76.3275 199,76.5C 201.361,76.5039 203.527,76.8373 205.5,77.5 Z"/></g>
<g><path style="opacity:0.702" fill="#e3e5e9" d="M 430.5,76.5 C 432.587,77.5846 433.92,79.2512 434.5,81.5C 432.413,80.4154 431.08,78.7488 430.5,76.5 Z"/></g>
<g><path style="opacity:0.878" fill="#d9dce0" d="M 306.5,78.5 C 308.698,78.1201 310.365,78.7868 311.5,80.5C 309.597,80.2041 307.93,79.5375 306.5,78.5 Z"/></g>
<g><path style="opacity:0.671" fill="#dee1e5" d="M 68.5,76.5 C 67.9202,78.7488 66.5869,80.4154 64.5,81.5C 65.0798,79.2512 66.4131,77.5846 68.5,76.5 Z"/></g>
<g><path style="opacity:0.412" fill="#e3e5e8" d="M 213.5,80.5 C 215.027,80.427 216.027,81.0937 216.5,82.5C 214.973,82.573 213.973,81.9063 213.5,80.5 Z"/></g>
<g><path style="opacity:0.324" fill="#e6e7ea" d="M 204.5,83.5 C 200.131,83.4672 195.798,83.8005 191.5,84.5C 193.848,83.0483 196.514,82.3817 199.5,82.5C 201.369,82.5068 203.036,82.8401 204.5,83.5 Z"/></g>
<g><path style="opacity:0.999" fill="#b6bdc6" d="M 204.5,83.5 C 212.06,85.3922 217.06,90.0589 219.5,97.5C 219.41,100.152 220.076,102.485 221.5,104.5C 223.575,119.623 216.909,128.29 201.5,130.5C 197.776,130.408 194.442,129.408 191.5,127.5C 191.027,126.094 190.027,125.427 188.5,125.5C 183.492,122.156 180.492,117.49 179.5,111.5C 179.375,105.797 179.708,100.13 180.5,94.5C 181.906,94.0269 182.573,93.0269 182.5,91.5C 184.5,90.1667 186.167,88.5 187.5,86.5C 188.514,85.3263 189.847,84.6596 191.5,84.5C 195.798,83.8005 200.131,83.4672 204.5,83.5 Z"/></g>
<g><path style="opacity:0.999" fill="#b7bdc6" d="M 299.5,83.5 C 301.861,83.6741 304.194,84.0074 306.5,84.5C 327.785,91.016 332.619,104.016 321,123.5C 320.292,124.381 319.458,125.047 318.5,125.5C 317.167,126.167 316.167,127.167 315.5,128.5C 314.547,130.61 312.881,131.777 310.5,132C 300.586,132.638 291.586,130.138 283.5,124.5C 284.301,122.958 284.634,121.292 284.5,119.5C 286.213,118.365 286.88,116.698 286.5,114.5C 286.935,111.843 287.935,109.509 289.5,107.5C 291.213,106.365 291.88,104.698 291.5,102.5C 293.213,101.365 293.88,99.698 293.5,97.5C 293.935,94.8427 294.935,92.5093 296.5,90.5C 298.241,88.6051 299.241,86.2718 299.5,83.5 Z"/></g>
<g><path style="opacity:0.18" fill="#e8e9eb" d="M 306.5,84.5 C 304.194,84.0074 301.861,83.6741 299.5,83.5C 299.811,82.5222 300.478,81.8555 301.5,81.5C 303.396,82.2745 305.063,83.2745 306.5,84.5 Z"/></g>
<g><path style="opacity:0.435" fill="#e0e2e6" d="M 321.5,84.5 C 323.027,84.427 324.027,85.0937 324.5,86.5C 322.973,86.573 321.973,85.9063 321.5,84.5 Z"/></g>
<g><path style="opacity:0.706" fill="#dee1e5" d="M 59.5,86.5 C 59.573,88.0269 58.9063,89.0269 57.5,89.5C 57.427,87.9731 58.0937,86.9731 59.5,86.5 Z"/></g>
<g><path style="opacity:0.494" fill="#e5e7e9" d="M 187.5,86.5 C 186.167,88.5 184.5,90.1667 182.5,91.5C 183.167,88.8333 184.833,87.1667 187.5,86.5 Z"/></g>
<g><path style="opacity:0.953" fill="#dadde1" d="M 299.5,83.5 C 299.241,86.2718 298.241,88.6051 296.5,90.5C 296.552,87.6538 297.552,85.3204 299.5,83.5 Z"/></g>
<g><path style="opacity:0.282" fill="#e5e7ea" d="M 182.5,91.5 C 182.573,93.0269 181.906,94.0269 180.5,94.5C 180.427,92.9731 181.094,91.9731 182.5,91.5 Z"/></g>
<g><path style="opacity:0.737" fill="#dde0e5" d="M 51.5,96.5 C 51.573,98.0269 50.9063,99.0269 49.5,99.5C 49.427,97.9731 50.0937,96.9731 51.5,96.5 Z"/></g>
<g><path style="opacity:0.51" fill="#e4e6e9" d="M 180.5,94.5 C 179.708,100.13 179.375,105.797 179.5,111.5C 176.788,105.699 177.121,100.032 180.5,94.5 Z"/></g>
<g><path style="opacity:0.922" fill="#dcdee3" d="M 293.5,97.5 C 293.88,99.698 293.213,101.365 291.5,102.5C 291.402,100.447 292.069,98.7804 293.5,97.5 Z"/></g>
<g><path style="opacity:0.325" fill="#e4e6e9" d="M 331.5,96.5 C 332.952,98.8476 333.618,101.514 333.5,104.5C 333.493,106.369 333.16,108.036 332.5,109.5C 332.414,105.143 332.08,100.81 331.5,96.5 Z"/></g>
<g><path style="opacity:0.714" fill="#d4d8dd" d="M 219.5,97.5 C 220.924,99.5145 221.59,101.848 221.5,104.5C 220.076,102.485 219.41,100.152 219.5,97.5 Z"/></g>
<g><path style="opacity:0.604" fill="#d8dce0" d="M 46.5,103.5 C 46.573,105.027 45.9063,106.027 44.5,106.5C 44.427,104.973 45.0937,103.973 46.5,103.5 Z"/></g>
<g><path style="opacity:0.941" fill="#dadce1" d="M 291.5,102.5 C 291.88,104.698 291.213,106.365 289.5,107.5C 289.402,105.447 290.069,103.78 291.5,102.5 Z"/></g>
<g><path style="opacity:0.416" fill="#e1e4e8" d="M 41.5,110.5 C 41.573,112.027 40.9063,113.027 39.5,113.5C 39.427,111.973 40.0937,110.973 41.5,110.5 Z"/></g>
<g><path style="opacity:0.906" fill="#dddfe3" d="M 286.5,114.5 C 286.88,116.698 286.213,118.365 284.5,119.5C 284.402,117.447 285.069,115.78 286.5,114.5 Z"/></g>
<g><path style="opacity:0.902" fill="#dbdde2" d="M 284.5,119.5 C 284.634,121.292 284.301,122.958 283.5,124.5C 282.322,122.662 282.655,120.995 284.5,119.5 Z"/></g>
<g><path style="opacity:0.369" fill="#e2e4e7" d="M 176.5,121.5 C 177.906,121.973 178.573,122.973 178.5,124.5C 177.094,124.027 176.427,123.027 176.5,121.5 Z"/></g>
<g><path style="opacity:0.022" fill="#f3f3f4" d="M 276.5,122.5 C 275.909,125.675 276.909,128.009 279.5,129.5C 278.178,129.67 277.011,129.337 276,128.5C 275.211,126.288 275.378,124.288 276.5,122.5 Z"/></g>
<g><path style="opacity:0.38" fill="#e1e4e8" d="M 465.5,123.5 C 466.906,123.973 467.573,124.973 467.5,126.5C 466.094,126.027 465.427,125.027 465.5,123.5 Z"/></g>
<g><path style="opacity:0.42" fill="#e1e3e6" d="M 188.5,125.5 C 190.027,125.427 191.027,126.094 191.5,127.5C 189.973,127.573 188.973,126.906 188.5,125.5 Z"/></g>
<g><path style="opacity:0.4" fill="#e3e5e7" d="M 327.5,124.5 C 327.573,126.027 326.906,127.027 325.5,127.5C 325.427,125.973 326.094,124.973 327.5,124.5 Z"/></g>
<g><path style="opacity:0.008" fill="#efeff1" d="M 318.5,125.5 C 318.5,127.5 317.5,128.5 315.5,128.5C 316.167,127.167 317.167,126.167 318.5,125.5 Z"/></g>
<g><path style="opacity:0.545" fill="#dfe1e4" d="M 223.5,124.5 C 222.167,127.833 219.833,130.167 216.5,131.5C 218.5,128.833 220.833,126.5 223.5,124.5 Z"/></g>
<g><path style="opacity:0.196" fill="#ececee" d="M 281.5,130.5 C 283.553,130.402 285.22,131.069 286.5,132.5C 284.447,132.598 282.78,131.931 281.5,130.5 Z"/></g>
<g><path style="opacity:0.545" fill="#dee0e4" d="M 325.5,127.5 C 324.167,130.833 321.833,133.167 318.5,134.5C 320.5,131.833 322.833,129.5 325.5,127.5 Z"/></g>
<g><path style="opacity:0.851" fill="#dddfe3" d="M 186.5,131.5 C 187.71,131.932 188.71,132.599 189.5,133.5C 187.821,133.715 186.821,133.048 186.5,131.5 Z"/></g>
<g><path style="opacity:0.635" fill="#e0e2e6" d="M 318.5,134.5 C 318.027,135.906 317.027,136.573 315.5,136.5C 315.973,135.094 316.973,134.427 318.5,134.5 Z"/></g>
<g><path style="opacity:0.394" fill="#dbdee2" d="M 113.5,140.5 C 115.552,141.053 115.885,142.053 114.5,143.5C 114.443,142.391 114.11,141.391 113.5,140.5 Z"/></g>
<g><path style="opacity:0.004" fill="#eeeef0" d="M 102.5,145.5 C 102.573,147.027 101.906,148.027 100.5,148.5C 100.427,146.973 101.094,145.973 102.5,145.5 Z"/></g>
<g><path style="opacity:0.302" fill="#ebecee" d="M 108.5,148.5 C 108.167,149.5 107.5,150.167 106.5,150.5C 106.5,149.167 107.167,148.5 108.5,148.5 Z"/></g>
<g><path style="opacity:0.086" fill="#f2f2f3" d="M 391.5,149.5 C 390.341,151.25 388.674,152.25 386.5,152.5C 387.659,150.75 389.326,149.75 391.5,149.5 Z"/></g>
<g><path style="opacity:0.012" fill="#ededef" d="M 397.5,148.5 C 399.048,148.821 399.715,149.821 399.5,151.5C 398.599,150.71 397.932,149.71 397.5,148.5 Z"/></g>
<g><path style="opacity:0.004" fill="#f2f3f4" d="M 399.5,151.5 C 400.906,151.973 401.573,152.973 401.5,154.5C 400.094,154.027 399.427,153.027 399.5,151.5 Z"/></g>
<g><path style="opacity:0.443" fill="#ecedef" d="M 387.5,158.5 C 387.027,159.906 386.027,160.573 384.5,160.5C 384.973,159.094 385.973,158.427 387.5,158.5 Z"/></g>
<g><path style="opacity:0.129" fill="#f0f0f1" d="M 396.5,157.5 C 397.906,157.973 398.573,158.973 398.5,160.5C 397.094,160.027 396.427,159.027 396.5,157.5 Z"/></g>
<g><path style="opacity:0.004" fill="#f7f6f7" d="M 373.5,159.5 C 373.027,160.906 372.027,161.573 370.5,161.5C 370.973,160.094 371.973,159.427 373.5,159.5 Z"/></g>
<g><path style="opacity:0.027" fill="#f5f4f5" d="M 101.5,158.5 C 100.167,163.5 100.167,168.5 101.5,173.5C 98.8333,168.5 98.8333,163.5 101.5,158.5 Z"/></g>
<g><path style="opacity:0.029" fill="#ebecee" d="M 150.5,179.5 C 152.051,174.586 152.884,169.586 153,164.5C 151.951,163.483 150.784,163.316 149.5,164C 148.901,165.622 148.234,167.122 147.5,168.5C 146.679,162.842 148.846,161.175 154,163.5C 154.473,168.622 153.806,173.622 152,178.5C 151.617,179.056 151.117,179.389 150.5,179.5 Z"/></g>
<g><path style="opacity:0.471" fill="#dadde1" d="M 95.5,157.5 C 94.8734,162.141 94.5401,166.807 94.5,171.5C 93.1087,166.738 93.442,162.072 95.5,157.5 Z"/></g>
<g><path style="opacity:0.629" fill="#e4e6e9" d="M 374.5,169.5 C 373.292,168.766 371.959,168.433 370.5,168.5C 372.423,165.782 373.756,166.116 374.5,169.5 Z"/></g>
<g><path style="opacity:0.078" fill="#eaeaed" d="M 380.5,162.5 C 379.359,164.451 379.359,166.451 380.5,168.5C 379.053,167.866 378.387,166.699 378.5,165C 378.684,163.624 379.351,162.791 380.5,162.5 Z"/></g>
<g><path style="opacity:0.004" fill="#f6f5f6" d="M 355.5,169.5 C 355.027,170.906 354.027,171.573 352.5,171.5C 352.973,170.094 353.973,169.427 355.5,169.5 Z"/></g>
<g><path style="opacity:0.192" fill="#e9ebed" d="M 402.5,168.5 C 403.906,168.973 404.573,169.973 404.5,171.5C 403.094,171.027 402.427,170.027 402.5,168.5 Z"/></g>
<g><path style="opacity:0.008" fill="#f6f5f6" d="M 350.5,172.5 C 349.058,173.82 348.392,175.486 348.5,177.5C 347.402,176.399 347.235,175.066 348,173.5C 348.671,172.748 349.504,172.414 350.5,172.5 Z"/></g>
<g><path style="opacity:0.502" fill="#e9ebed" d="M 362.5,172.5 C 362.027,173.906 361.027,174.573 359.5,174.5C 359.973,173.094 360.973,172.427 362.5,172.5 Z"/></g>
<g><path style="opacity:0.792" fill="#dee1e4" d="M 94.5,171.5 C 95.7384,173.214 96.405,175.214 96.5,177.5C 94.9261,175.898 94.2594,173.898 94.5,171.5 Z"/></g>
<g><path style="opacity:0.835" fill="#dcdfe3" d="M 357.5,175.5 C 356.699,177.042 356.366,178.708 356.5,180.5C 353.886,178.399 354.22,176.732 357.5,175.5 Z"/></g>
<g><path style="opacity:0.231" fill="#e7e8eb" d="M 377.5,175.5 C 378.906,175.973 379.573,176.973 379.5,178.5C 378.094,178.027 377.427,177.027 377.5,175.5 Z"/></g>
<g><path style="opacity:0.192" fill="#ecedef" d="M 406.5,175.5 C 407.906,175.973 408.573,176.973 408.5,178.5C 407.094,178.027 406.427,177.027 406.5,175.5 Z"/></g>
<g><path style="opacity:0.192" fill="#f4f4f5" d="M 412.5,174.5 C 413.598,175.601 413.765,176.934 413,178.5C 411.384,179.801 409.884,179.801 408.5,178.5C 411.5,178.833 412.833,177.5 412.5,174.5 Z"/></g>
<g><path style="opacity:0.663" fill="#dcdfe3" d="M 103.5,177.5 C 105.446,178.035 106.446,179.368 106.5,181.5C 105.026,180.564 104.026,179.23 103.5,177.5 Z"/></g>
<g><path style="opacity:0.247" fill="#e7e8eb" d="M 348.5,178.5 C 349.906,178.973 350.573,179.973 350.5,181.5C 349.094,181.027 348.427,180.027 348.5,178.5 Z"/></g>
<g><path style="opacity:0.706" fill="#dfe2e5" d="M 106.5,181.5 C 108.027,181.427 109.027,182.094 109.5,183.5C 107.973,183.573 106.973,182.906 106.5,181.5 Z"/></g>
<g><path style="opacity:0.133" fill="#f0f1f2" d="M 150.5,179.5 C 150.573,181.027 149.906,182.027 148.5,182.5C 148.427,180.973 149.094,179.973 150.5,179.5 Z"/></g>
<g><path style="opacity:0.953" fill="#d5d9de" d="M 9.5,179.5 C 9.2766,183.162 8.2766,186.495 6.5,189.5C 6.7234,185.838 7.7234,182.505 9.5,179.5 Z"/></g>
<g><path style="opacity:0.906" fill="#d2d6db" d="M 489.5,179.5 C 490.924,181.515 491.59,183.848 491.5,186.5C 490.076,184.485 489.41,182.152 489.5,179.5 Z"/></g>
<g><path style="opacity:0.486" fill="#dee0e4" d="M 98.5,181.5 C 99.9063,181.973 100.573,182.973 100.5,184.5C 99.0937,184.027 98.427,183.027 98.5,181.5 Z"/></g>
<g><path style="opacity:0.133" fill="#f3f3f4" d="M 388.5,183.5 C 390.349,187.494 389.015,188.994 384.5,188C 383.177,187.184 382.511,186.017 382.5,184.5C 383.815,185.476 385.148,186.476 386.5,187.5C 388.111,186.68 388.778,185.346 388.5,183.5 Z"/></g>
<g><path style="opacity:0.176" fill="#ebecee" d="M 352.5,185.5 C 353.906,185.973 354.573,186.973 354.5,188.5C 353.094,188.027 352.427,187.027 352.5,185.5 Z"/></g>
<g><path style="opacity:0.743" fill="#dee1e4" d="M 118.5,188.5 C 123.167,188.5 127.833,188.5 132.5,188.5C 127.857,190.959 123.19,190.959 118.5,188.5 Z"/></g>
<g><path style="opacity:0.894" fill="#dadce1" d="M 106.5,189.5 C 107.71,189.932 108.71,190.599 109.5,191.5C 107.821,191.715 106.821,191.048 106.5,189.5 Z"/></g>
<g><path style="opacity:0.753" fill="#d9dbe0" d="M 141.5,190.5 C 141.027,191.906 140.027,192.573 138.5,192.5C 138.973,191.094 139.973,190.427 141.5,190.5 Z"/></g>
<g><path style="opacity:0.261" fill="#dcdfe3" d="M 138.5,192.5 C 136.333,194.511 133.666,195.678 130.5,196C 126.642,196.81 122.976,196.643 119.5,195.5C 126.07,195.877 132.403,194.877 138.5,192.5 Z"/></g>
<g><path style="opacity:0.302" fill="#e4e5e9" d="M 358.5,196.5 C 359.906,196.973 360.573,197.973 360.5,199.5C 359.094,199.027 358.427,198.027 358.5,196.5 Z"/></g>
<g><path style="opacity:0.31" fill="#e9eaec" d="M 367.5,200.5 C 368.918,202.988 368.084,204.654 365,205.5C 362.926,204.928 361.76,203.595 361.5,201.5C 362.794,202.29 363.961,203.29 365,204.5C 366.481,203.529 367.315,202.196 367.5,200.5 Z"/></g>
<g><path style="opacity:0.282" fill="#ecedee" d="M 113.5,264.5 C 111.784,264.629 110.117,264.962 108.5,265.5C 109.879,263.403 111.545,263.07 113.5,264.5 Z"/></g>
<g><path style="opacity:0.114" fill="#f0f0f2" d="M 384.5,264.5 C 387.285,263.115 389.618,263.782 391.5,266.5C 389.254,265.545 386.921,264.878 384.5,264.5 Z"/></g>
<g><path style="opacity:0.129" fill="#f0f0f1" d="M 384.5,264.5 C 383.962,266.117 383.629,267.784 383.5,269.5C 382.07,267.545 382.403,265.879 384.5,264.5 Z"/></g>
<g><path style="opacity:0.041" fill="#f5f4f5" d="M 108.5,265.5 C 107.058,266.82 106.392,268.486 106.5,270.5C 105.402,269.399 105.235,268.066 106,266.5C 106.671,265.748 107.504,265.414 108.5,265.5 Z"/></g>
<g><path style="opacity:0.502" fill="#ebecee" d="M 114.5,265.5 C 115.613,266.946 115.78,268.613 115,270.5C 114.329,271.252 113.496,271.586 112.5,271.5C 114.081,269.858 114.747,267.858 114.5,265.5 Z"/></g>
<g><path style="opacity:0.027" fill="#f2f2f3" d="M 106.5,270.5 C 108.379,271.341 110.379,271.675 112.5,271.5C 111.726,272.147 110.726,272.48 109.5,272.5C 107.97,272.36 106.97,271.693 106.5,270.5 Z"/></g>
<g><path style="opacity:0.216" fill="#edeeef" d="M 391.5,266.5 C 393.548,270.782 392.215,272.949 387.5,273C 385.456,272.502 384.122,271.335 383.5,269.5C 385.386,270.361 387.22,271.361 389,272.5C 391.039,271.022 391.872,269.022 391.5,266.5 Z"/></g>
<g><path style="opacity:0.286" fill="#e4e7ea" d="M 498.5,274.5 C 498.638,279.414 497.972,284.081 496.5,288.5C 496.532,283.609 497.199,278.943 498.5,274.5 Z"/></g>
<g><path style="opacity:0.427" fill="#e2e5e8" d="M 0.5,275.5 C 1.89548,279.591 2.56214,283.924 2.5,288.5C 1.10452,284.409 0.437858,280.076 0.5,275.5 Z"/></g>
<g><path style="opacity:0.004" fill="#eaebed" d="M 351.5,314.5 C 353.446,315.035 354.446,316.368 354.5,318.5C 353.026,317.564 352.026,316.23 351.5,314.5 Z"/></g>
<g><path style="opacity:0.02" fill="#ebecee" d="M 151.5,317.5 C 148.14,317.616 144.807,317.949 141.5,318.5C 144.708,316.469 148.041,316.135 151.5,317.5 Z"/></g>
<g><path style="opacity:0.788" fill="#e0e2e5" d="M 151.5,317.5 C 154.01,317.054 156.01,317.72 157.5,319.5C 155.302,319.125 153.302,318.458 151.5,317.5 Z"/></g>
<g><path style="opacity:0.204" fill="#eaebed" d="M 158.5,319.5 C 160.027,319.427 161.027,320.094 161.5,321.5C 159.973,321.573 158.973,320.906 158.5,319.5 Z"/></g>
<g><path style="opacity:0.004" fill="#f1f2f3" d="M 138.5,320.5 C 138.027,321.906 137.027,322.573 135.5,322.5C 135.973,321.094 136.973,320.427 138.5,320.5 Z"/></g>
<g><path style="opacity:0.999" fill="#b6bdc6" d="M 349.5,321.5 C 349.427,323.027 350.094,324.027 351.5,324.5C 352.338,324.842 352.672,325.508 352.5,326.5C 352.427,328.027 353.094,329.027 354.5,329.5C 354.427,331.027 355.094,332.027 356.5,332.5C 357.338,332.842 357.672,333.508 357.5,334.5C 357.427,336.027 358.094,337.027 359.5,337.5C 359.427,339.027 360.094,340.027 361.5,340.5C 361.427,342.027 362.094,343.027 363.5,343.5C 364.332,345.725 363.332,347.058 360.5,347.5C 358.973,347.427 357.973,348.094 357.5,349.5C 355.973,349.427 354.973,350.094 354.5,351.5C 350.005,355.251 345.005,358.251 339.5,360.5C 336.833,360.833 334.167,361.167 331.5,361.5C 325.942,360.276 322.275,356.943 320.5,351.5C 320.5,348.167 320.5,344.833 320.5,341.5C 320.738,339.596 321.738,338.262 323.5,337.5C 326.089,336.581 328.089,334.914 329.5,332.5C 331.027,332.573 332.027,331.906 332.5,330.5C 334.027,330.573 335.027,329.906 335.5,328.5C 335.842,327.662 336.508,327.328 337.5,327.5C 339.027,327.573 340.027,326.906 340.5,325.5C 342.027,325.573 343.027,324.906 343.5,323.5C 345.027,323.573 346.027,322.906 346.5,321.5C 347.5,320.167 348.5,320.167 349.5,321.5 Z"/></g>
<g><path style="opacity:0.008" fill="#f4f4f5" d="M 336.5,321.5 C 336.027,322.906 335.027,323.573 333.5,323.5C 333.973,322.094 334.973,321.427 336.5,321.5 Z"/></g>
<g><path style="opacity:0.549" fill="#e5e6e9" d="M 346.5,321.5 C 346.027,322.906 345.027,323.573 343.5,323.5C 343.973,322.094 344.973,321.427 346.5,321.5 Z"/></g>
<g><path style="opacity:0.004" fill="#eeeef0" d="M 135.5,322.5 C 135.573,324.027 134.906,325.027 133.5,325.5C 133.427,323.973 134.094,322.973 135.5,322.5 Z"/></g>
<g><path style="opacity:0.999" fill="#b7bec6" d="M 167.5,331.5 C 168.035,333.446 169.368,334.446 171.5,334.5C 172.492,334.328 173.158,334.662 173.5,335.5C 173.973,336.906 174.973,337.573 176.5,337.5C 176.973,338.906 177.973,339.573 179.5,339.5C 175.36,347.832 170.527,355.832 165,363.5C 164.023,364.774 163.189,364.774 162.5,363.5C 162.027,362.094 161.027,361.427 159.5,361.5C 159.027,360.094 158.027,359.427 156.5,359.5C 156.027,358.094 155.027,357.427 153.5,357.5C 153.027,356.094 152.027,355.427 150.5,355.5C 149.508,355.672 148.842,355.338 148.5,354.5C 148.027,353.094 147.027,352.427 145.5,352.5C 144.738,350.738 143.404,349.738 141.5,349.5C 140.118,347.451 138.452,345.785 136.5,344.5C 135.662,344.158 135.328,343.492 135.5,342.5C 135.552,338.802 135.886,335.135 136.5,331.5C 137.906,331.027 138.573,330.027 138.5,328.5C 142.902,322.554 148.568,321.054 155.5,324C 159.732,326.275 163.732,328.775 167.5,331.5 Z"/></g>
<g><path style="opacity:0.361" fill="#e3e4e7" d="M 163.5,322.5 C 165.027,322.427 166.027,323.094 166.5,324.5C 164.973,324.573 163.973,323.906 163.5,322.5 Z"/></g>
<g><path style="opacity:0.118" fill="#f3f2f4" d="M 349.5,321.5 C 350.906,321.973 351.573,322.973 351.5,324.5C 350.094,324.027 349.427,323.027 349.5,321.5 Z"/></g>
<g><path style="opacity:0.894" fill="#dcdfe3" d="M 357.5,323.5 C 359.446,324.035 360.446,325.368 360.5,327.5C 359.026,326.564 358.026,325.23 357.5,323.5 Z"/></g>
<g><path style="opacity:0.004" fill="#f5f5f6" d="M 333.5,323.5 C 333.027,324.906 332.027,325.573 330.5,325.5C 330.973,324.094 331.973,323.427 333.5,323.5 Z"/></g>
<g><path style="opacity:0.624" fill="#e1e4e7" d="M 343.5,323.5 C 343.027,324.906 342.027,325.573 340.5,325.5C 340.973,324.094 341.973,323.427 343.5,323.5 Z"/></g>
<g><path style="opacity:0.298" fill="#e6e7ea" d="M 166.5,324.5 C 168.027,324.427 169.027,325.094 169.5,326.5C 167.973,326.573 166.973,325.906 166.5,324.5 Z"/></g>
<g><path style="opacity:0.702" fill="#dee0e4" d="M 340.5,325.5 C 340.027,326.906 339.027,327.573 337.5,327.5C 337.973,326.094 338.973,325.427 340.5,325.5 Z"/></g>
<g><path style="opacity:0.231" fill="#e9eaed" d="M 169.5,326.5 C 171.027,326.427 172.027,327.094 172.5,328.5C 170.973,328.573 169.973,327.906 169.5,326.5 Z"/></g>
<g><path style="opacity:0.263" fill="#e9eaed" d="M 352.5,326.5 C 353.906,326.973 354.573,327.973 354.5,329.5C 353.094,329.027 352.427,328.027 352.5,326.5 Z"/></g>
<g><path style="opacity:0.467" fill="#eaebee" d="M 335.5,328.5 C 335.027,329.906 334.027,330.573 332.5,330.5C 332.973,329.094 333.973,328.427 335.5,328.5 Z"/></g>
<g><path style="opacity:0.149" fill="#efeff0" d="M 138.5,328.5 C 138.573,330.027 137.906,331.027 136.5,331.5C 136.427,329.973 137.094,328.973 138.5,328.5 Z"/></g>
<g><path style="opacity:0.494" fill="#dcdfe3" d="M 174.5,329.5 C 176.027,329.427 177.027,330.094 177.5,331.5C 175.973,331.573 174.973,330.906 174.5,329.5 Z"/></g>
<g><path style="opacity:0.522" fill="#e7e8eb" d="M 332.5,330.5 C 332.027,331.906 331.027,332.573 329.5,332.5C 329.973,331.094 330.973,330.427 332.5,330.5 Z"/></g>
<g><path style="opacity:0.2" fill="#ecedef" d="M 354.5,329.5 C 355.906,329.973 356.573,330.973 356.5,332.5C 355.094,332.027 354.427,331.027 354.5,329.5 Z"/></g>
<g><path style="opacity:0.855" fill="#dde0e3" d="M 167.5,331.5 C 169.23,332.026 170.564,333.026 171.5,334.5C 169.368,334.446 168.035,333.446 167.5,331.5 Z"/></g>
<g><path style="opacity:0.431" fill="#e0e2e6" d="M 177.5,331.5 C 179.027,331.427 180.027,332.094 180.5,333.5C 178.973,333.573 177.973,332.906 177.5,331.5 Z"/></g>
<g><path style="opacity:0.369" fill="#e3e5e7" d="M 180.5,333.5 C 182.027,333.427 183.027,334.094 183.5,335.5C 181.973,335.573 180.973,334.906 180.5,333.5 Z"/></g>
<g><path style="opacity:0.004" fill="#f3f3f4" d="M 173.5,335.5 C 175.027,335.427 176.027,336.094 176.5,337.5C 174.973,337.573 173.973,336.906 173.5,335.5 Z"/></g>
<g><path style="opacity:0.922" fill="#d0d4d9" d="M 329.5,332.5 C 328.089,334.914 326.089,336.581 323.5,337.5C 324.911,335.086 326.911,333.419 329.5,332.5 Z"/></g>
<g><path style="opacity:0.38" fill="#e4e6e9" d="M 183.5,335.5 C 186.821,336.098 187.821,337.765 186.5,340.5C 185.925,338.589 184.925,336.922 183.5,335.5 Z"/></g>
<g><path style="opacity:0.404" fill="#e1e3e6" d="M 357.5,334.5 C 358.906,334.973 359.573,335.973 359.5,337.5C 358.094,337.027 357.427,336.027 357.5,334.5 Z"/></g>
<g><path style="opacity:0.361" fill="#dcdee2" d="M 130.5,330.5 C 129.793,333.786 129.46,337.119 129.5,340.5C 128.844,339.378 128.511,338.045 128.5,336.5C 128.361,334.117 129.028,332.117 130.5,330.5 Z"/></g>
<g><path style="opacity:0.294" fill="#e9eaec" d="M 136.5,331.5 C 135.886,335.135 135.552,338.802 135.5,342.5C 134.098,338.71 134.431,335.044 136.5,331.5 Z"/></g>
<g><path style="opacity:0.016" fill="#f2f2f3" d="M 176.5,337.5 C 178.027,337.427 179.027,338.094 179.5,339.5C 177.973,339.573 176.973,338.906 176.5,337.5 Z"/></g>
<g><path style="opacity:0.341" fill="#e4e6e9" d="M 359.5,337.5 C 360.906,337.973 361.573,338.973 361.5,340.5C 360.094,340.027 359.427,339.027 359.5,337.5 Z"/></g>
<g><path style="opacity:0.898" fill="#dcdee2" d="M 368.5,340.5 C 370.446,341.035 371.446,342.368 371.5,344.5C 370.026,343.564 369.026,342.23 368.5,340.5 Z"/></g>
<g><path style="opacity:0.247" fill="#e8e9eb" d="M 361.5,340.5 C 362.906,340.973 363.573,341.973 363.5,343.5C 362.094,343.027 361.427,342.027 361.5,340.5 Z"/></g>
<g><path style="opacity:0.353" fill="#e4e6e9" d="M 185.5,342.5 C 185.573,344.027 184.906,345.027 183.5,345.5C 183.427,343.973 184.094,342.973 185.5,342.5 Z"/></g>
<g><path style="opacity:0.022" fill="#eaebed" d="M 214.5,344.5 C 211.14,344.616 207.807,344.949 204.5,345.5C 207.708,343.469 211.041,343.135 214.5,344.5 Z"/></g>
<g><path style="opacity:0.761" fill="#dee1e5" d="M 320.5,341.5 C 320.5,344.833 320.5,348.167 320.5,351.5C 317.833,348.167 317.833,344.833 320.5,341.5 Z"/></g>
<g><path style="opacity:0.03" fill="#f5f4f5" d="M 286.5,346.5 C 285.167,346.5 283.833,346.5 282.5,346.5C 283.833,343.833 285.167,343.833 286.5,346.5 Z"/></g>
<g><path style="opacity:0.561" fill="#dcdee2" d="M 314.5,340.5 C 314.037,343.482 313.704,346.482 313.5,349.5C 312.185,346.373 312.518,343.373 314.5,340.5 Z"/></g>
<g><path style="opacity:0.482" fill="#e1e3e6" d="M 136.5,344.5 C 138.452,345.785 140.118,347.451 141.5,349.5C 138.856,348.856 137.189,347.189 136.5,344.5 Z"/></g>
<g><path style="opacity:0.004" fill="#f5f4f5" d="M 204.5,345.5 C 203.486,346.674 202.153,347.34 200.5,347.5C 201.287,345.896 202.62,345.229 204.5,345.5 Z"/></g>
<g><path style="opacity:0.298" fill="#e8e9eb" d="M 183.5,345.5 C 183.573,347.027 182.906,348.027 181.5,348.5C 181.427,346.973 182.094,345.973 183.5,345.5 Z"/></g>
<g><path style="opacity:0.302" fill="#e9eaec" d="M 223.5,347.5 C 225.027,347.427 226.027,348.094 226.5,349.5C 224.973,349.573 223.973,348.906 223.5,347.5 Z"/></g>
<g><path style="opacity:0.016" fill="#f5f5f6" d="M 360.5,347.5 C 360.027,348.906 359.027,349.573 357.5,349.5C 357.973,348.094 358.973,347.427 360.5,347.5 Z"/></g>
<g><path style="opacity:0.106" fill="#efeff1" d="M 132.5,347.5 C 133.267,348.172 133.934,349.005 134.5,350C 131.146,350.455 127.813,350.955 124.5,351.5C 127.365,350.38 130.032,349.047 132.5,347.5 Z"/></g>
<g><path style="opacity:0.18" fill="#ecedef" d="M 216.5,350.5 C 212.007,350.269 207.674,350.936 203.5,352.5C 204.347,351.034 205.68,350.2 207.5,350C 210.696,349.195 213.696,349.362 216.5,350.5 Z"/></g>
<g><path style="opacity:0.631" fill="#dcdee2" d="M 141.5,349.5 C 143.404,349.738 144.738,350.738 145.5,352.5C 143.596,352.262 142.262,351.262 141.5,349.5 Z"/></g>
<g><path style="opacity:0.231" fill="#eaebed" d="M 181.5,348.5 C 181.573,350.027 180.906,351.027 179.5,351.5C 179.427,349.973 180.094,348.973 181.5,348.5 Z"/></g>
<g><path style="opacity:0.008" fill="#f6f6f7" d="M 357.5,349.5 C 357.027,350.906 356.027,351.573 354.5,351.5C 354.973,350.094 355.973,349.427 357.5,349.5 Z"/></g>
<g><path style="opacity:0.999" fill="#b7bdc6" d="M 367.5,350.5 C 367.833,351.5 368.5,352.167 369.5,352.5C 370.338,352.842 370.672,353.508 370.5,354.5C 370.427,356.027 371.094,357.027 372.5,357.5C 372.427,359.027 373.094,360.027 374.5,360.5C 374.427,362.027 375.094,363.027 376.5,363.5C 377.338,363.842 377.672,364.508 377.5,365.5C 377.427,367.027 378.094,368.027 379.5,368.5C 379.427,370.027 380.094,371.027 381.5,371.5C 381.586,372.496 381.252,373.329 380.5,374C 376.929,376.421 373.262,378.587 369.5,380.5C 367.973,380.427 366.973,381.094 366.5,382.5C 364.973,382.427 363.973,383.094 363.5,384.5C 353.104,390.81 345.771,388.143 341.5,376.5C 341.704,373.482 342.037,370.482 342.5,367.5C 344.5,366.167 346.167,364.5 347.5,362.5C 349.027,362.573 350.027,361.906 350.5,360.5C 352.027,360.573 353.027,359.906 353.5,358.5C 353.842,357.662 354.508,357.328 355.5,357.5C 357.404,357.262 358.738,356.262 359.5,354.5C 359.842,353.662 360.508,353.328 361.5,353.5C 363.027,353.573 364.027,352.906 364.5,351.5C 365.172,350.733 366.005,350.066 367,349.5C 367.399,349.728 367.565,350.062 367.5,350.5 Z"/></g>
<g><path style="opacity:0.016" fill="#f1f1f2" d="M 367.5,350.5 C 368.833,350.5 369.5,351.167 369.5,352.5C 368.5,352.167 367.833,351.5 367.5,350.5 Z"/></g>
<g><path style="opacity:0.012" fill="#eeeef0" d="M 287.5,348.5 C 290.26,356.544 292.26,364.877 293.5,373.5C 290.74,365.456 288.74,357.123 287.5,348.5 Z"/></g>
<g><path style="opacity:0.584" fill="#e2e4e8" d="M 364.5,351.5 C 364.027,352.906 363.027,353.573 361.5,353.5C 361.973,352.094 362.973,351.427 364.5,351.5 Z"/></g>
<g><path style="opacity:0.104" fill="#f4f4f5" d="M 129.5,354.5 C 130.622,353.844 131.955,353.511 133.5,353.5C 135.883,353.361 137.883,354.028 139.5,355.5C 136.214,354.793 132.881,354.46 129.5,354.5 Z"/></g>
<g><path style="opacity:0.22" fill="#eaecee" d="M 145.5,352.5 C 147.027,352.427 148.027,353.094 148.5,354.5C 146.973,354.573 145.973,353.906 145.5,352.5 Z"/></g>
<g><path style="opacity:0.192" fill="#edeeef" d="M 179.5,351.5 C 179.573,353.027 178.906,354.027 177.5,354.5C 177.427,352.973 178.094,351.973 179.5,351.5 Z"/></g>
<g><path style="opacity:0.769" fill="#d8dbdf" d="M 203.5,352.5 C 203.027,353.906 202.027,354.573 200.5,354.5C 200.973,353.094 201.973,352.427 203.5,352.5 Z"/></g>
<g><path style="opacity:0.867" fill="#dcdfe3" d="M 229.5,353.5 C 231.048,353.821 231.715,354.821 231.5,356.5C 230.599,355.71 229.932,354.71 229.5,353.5 Z"/></g>
<g><path style="opacity:0.999" fill="#b7bec6" d="M 129.5,354.5 C 132.881,354.46 136.214,354.793 139.5,355.5C 143.1,357.11 146.434,359.11 149.5,361.5C 150.733,363.796 152.733,365.13 155.5,365.5C 155.973,366.906 156.973,367.573 158.5,367.5C 160.273,368.314 160.773,369.648 160,371.5C 155.75,377.665 151.75,383.998 148,390.5C 147.329,391.252 146.496,391.586 145.5,391.5C 145.027,390.094 144.027,389.427 142.5,389.5C 142.027,388.094 141.027,387.427 139.5,387.5C 139.027,386.094 138.027,385.427 136.5,385.5C 136.027,384.094 135.027,383.427 133.5,383.5C 133.027,382.094 132.027,381.427 130.5,381.5C 130.027,380.094 129.027,379.427 127.5,379.5C 120.203,376.247 117.87,370.914 120.5,363.5C 121.906,363.027 122.573,362.027 122.5,360.5C 124.5,359.167 126.167,357.5 127.5,355.5C 127.842,354.662 128.508,354.328 129.5,354.5 Z"/></g>
<g><path style="opacity:0.384" fill="#e8e8eb" d="M 359.5,354.5 C 358.738,356.262 357.404,357.262 355.5,357.5C 356.262,355.738 357.596,354.738 359.5,354.5 Z"/></g>
<g><path style="opacity:0.522" fill="#e5e7ea" d="M 127.5,355.5 C 126.167,357.5 124.5,359.167 122.5,360.5C 123.167,357.833 124.833,356.167 127.5,355.5 Z"/></g>
<g><path style="opacity:0.439" fill="#dee1e4" d="M 150.5,355.5 C 152.027,355.427 153.027,356.094 153.5,357.5C 151.973,357.573 150.973,356.906 150.5,355.5 Z"/></g>
<g><path style="opacity:0.49" fill="#e6e7ea" d="M 200.5,354.5 C 200.262,356.404 199.262,357.738 197.5,358.5C 197.738,356.596 198.738,355.262 200.5,354.5 Z"/></g>
<g><path style="opacity:0.494" fill="#dfe0e4" d="M 223.5,354.5 C 224.906,354.973 225.573,355.973 225.5,357.5C 224.094,357.027 223.427,356.027 223.5,354.5 Z"/></g>
<g><path style="opacity:0.337" fill="#e5e6e9" d="M 370.5,354.5 C 371.906,354.973 372.573,355.973 372.5,357.5C 371.094,357.027 370.427,356.027 370.5,354.5 Z"/></g>
<g><path style="opacity:0.906" fill="#dbdee1" d="M 379.5,357.5 C 381.446,358.035 382.446,359.368 382.5,361.5C 381.026,360.564 380.026,359.23 379.5,357.5 Z"/></g>
<g><path style="opacity:0.376" fill="#e2e4e7" d="M 153.5,357.5 C 155.027,357.427 156.027,358.094 156.5,359.5C 154.973,359.573 153.973,358.906 153.5,357.5 Z"/></g>
<g><path style="opacity:0.4" fill="#e2e3e7" d="M 176.5,356.5 C 176.573,358.027 175.906,359.027 174.5,359.5C 174.427,357.973 175.094,356.973 176.5,356.5 Z"/></g>
<g><path style="opacity:0.286" fill="#e8e9eb" d="M 192.5,355.5 C 191.612,360.072 190.279,364.405 188.5,368.5C 188.769,363.736 190.102,359.403 192.5,355.5 Z"/></g>
<g><path style="opacity:0.153" fill="#eaebed" d="M 225.5,357.5 C 226.906,357.973 227.573,358.973 227.5,360.5C 226.094,360.027 225.427,359.027 225.5,357.5 Z"/></g>
<g><path style="opacity:0.49" fill="#e1e2e6" d="M 316.5,357.5 C 318.262,358.262 319.262,359.596 319.5,361.5C 317.738,360.738 316.738,359.404 316.5,357.5 Z"/></g>
<g><path style="opacity:0.498" fill="#e8eaec" d="M 353.5,358.5 C 353.027,359.906 352.027,360.573 350.5,360.5C 350.973,359.094 351.973,358.427 353.5,358.5 Z"/></g>
<g><path style="opacity:0.278" fill="#e8e9ec" d="M 372.5,357.5 C 373.906,357.973 374.573,358.973 374.5,360.5C 373.094,360.027 372.427,359.027 372.5,357.5 Z"/></g>
<g><path style="opacity:0.325" fill="#e6e7e9" d="M 156.5,359.5 C 158.027,359.427 159.027,360.094 159.5,361.5C 157.973,361.573 156.973,360.906 156.5,359.5 Z"/></g>
<g><path style="opacity:0.012" fill="#ededef" d="M 232.5,358.5 C 234.842,361.015 234.842,363.515 232.5,366C 229.162,366.5 227.495,365 227.5,361.5C 228.429,362.936 229.595,364.269 231,365.5C 233.287,363.763 233.787,361.43 232.5,358.5 Z"/></g>
<g><path style="opacity:0.329" fill="#e5e7e9" d="M 174.5,359.5 C 174.573,361.027 173.906,362.027 172.5,362.5C 172.427,360.973 173.094,359.973 174.5,359.5 Z"/></g>
<g><path style="opacity:0.765" fill="#e5e7ea" d="M 197.5,358.5 C 197.741,360.898 197.074,362.898 195.5,364.5C 195.259,362.102 195.926,360.102 197.5,358.5 Z"/></g>
<g><path style="opacity:0.017" fill="#f8f7f8" d="M 339.5,360.5 C 336.96,362.413 334.293,362.746 331.5,361.5C 334.167,361.167 336.833,360.833 339.5,360.5 Z"/></g>
<g><path style="opacity:0.553" fill="#e5e7ea" d="M 350.5,360.5 C 350.027,361.906 349.027,362.573 347.5,362.5C 347.973,361.094 348.973,360.427 350.5,360.5 Z"/></g>
<g><path style="opacity:0.18" fill="#ebebed" d="M 122.5,360.5 C 122.573,362.027 121.906,363.027 120.5,363.5C 120.427,361.973 121.094,360.973 122.5,360.5 Z"/></g>
<g><path style="opacity:0.278" fill="#e8eaec" d="M 159.5,361.5 C 161.027,361.427 162.027,362.094 162.5,363.5C 160.973,363.573 159.973,362.906 159.5,361.5 Z"/></g>
<g><path style="opacity:0.004" fill="#eeeef0" d="M 320.5,362.5 C 322.027,362.427 323.027,363.094 323.5,364.5C 321.973,364.573 320.973,363.906 320.5,362.5 Z"/></g>
<g><path style="opacity:0.22" fill="#eaecee" d="M 374.5,360.5 C 375.906,360.973 376.573,361.973 376.5,363.5C 375.094,363.027 374.427,362.027 374.5,360.5 Z"/></g>
<g><path style="opacity:0.004" fill="#eaebed" d="M 149.5,361.5 C 151.882,362.351 153.882,363.684 155.5,365.5C 152.733,365.13 150.733,363.796 149.5,361.5 Z"/></g>
<g><path style="opacity:0.376" fill="#eeeef0" d="M 347.5,362.5 C 346.167,364.5 344.5,366.167 342.5,367.5C 343.167,364.833 344.833,363.167 347.5,362.5 Z"/></g>
<g><path style="opacity:0.267" fill="#e8eaec" d="M 172.5,362.5 C 172.573,364.027 171.906,365.027 170.5,365.5C 170.427,363.973 171.094,362.973 172.5,362.5 Z"/></g>
<g><path style="opacity:0.725" fill="#dee1e4" d="M 284.5,361.5 C 286.04,363.838 286.706,366.505 286.5,369.5C 285.232,367.095 284.565,364.428 284.5,361.5 Z"/></g>
<g><path style="opacity:0.012" fill="#f3f3f4" d="M 155.5,365.5 C 157.027,365.427 158.027,366.094 158.5,367.5C 156.973,367.573 155.973,366.906 155.5,365.5 Z"/></g>
<g><path style="opacity:0.231" fill="#ebecee" d="M 170.5,365.5 C 170.573,367.027 169.906,368.027 168.5,368.5C 168.427,366.973 169.094,365.973 170.5,365.5 Z"/></g>
<g><path style="opacity:0.447" fill="#dee1e5" d="M 377.5,365.5 C 378.906,365.973 379.573,366.973 379.5,368.5C 378.094,368.027 377.427,367.027 377.5,365.5 Z"/></g>
<g><path style="opacity:0.698" fill="#ebebed" d="M 342.5,367.5 C 342.037,370.482 341.704,373.482 341.5,376.5C 340.848,375.551 340.514,374.385 340.5,373C 340.393,370.779 341.06,368.946 342.5,367.5 Z"/></g>
<g><path style="opacity:0.345" fill="#e2e4e7" d="M 379.5,368.5 C 380.906,368.973 381.573,369.973 381.5,371.5C 380.094,371.027 379.427,370.027 379.5,368.5 Z"/></g>
<g><path style="opacity:0.443" fill="#dfe2e5" d="M 167.5,370.5 C 167.573,372.027 166.906,373.027 165.5,373.5C 165.427,371.973 166.094,370.973 167.5,370.5 Z"/></g>
<g><path style="opacity:0.678" fill="#e3e5e8" d="M 286.5,369.5 C 288.04,371.838 288.706,374.505 288.5,377.5C 287.232,375.095 286.565,372.428 286.5,369.5 Z"/></g>
<g><path style="opacity:0.651" fill="#ebebed" d="M 195.5,364.5 C 195.242,370.528 193.908,376.194 191.5,381.5C 192.39,375.614 193.723,369.947 195.5,364.5 Z"/></g>
<g><path style="opacity:0.396" fill="#e2e4e7" d="M 165.5,373.5 C 165.573,375.027 164.906,376.027 163.5,376.5C 163.427,374.973 164.094,373.973 165.5,373.5 Z"/></g>
<g><path style="opacity:0.384" fill="#e7e8eb" d="M 388.5,374.5 C 387.738,376.262 386.404,377.262 384.5,377.5C 385.262,375.738 386.596,374.738 388.5,374.5 Z"/></g>
<g><path style="opacity:0.776" fill="#e1e2e6" d="M 115.5,376.5 C 117.5,377.833 119.167,379.5 120.5,381.5C 117.833,380.833 116.167,379.167 115.5,376.5 Z"/></g>
<g><path style="opacity:0.026" fill="#ebecee" d="M 325.5,365.5 C 330.073,366.417 334.573,366.751 339,366.5C 338.246,369.744 337.413,373.077 336.5,376.5C 337.309,378.071 337.643,379.738 337.5,381.5C 334.862,377.277 334.862,372.944 337.5,368.5C 333.213,368.027 329.213,367.027 325.5,365.5 Z"/></g>
<g><path style="opacity:0.333" fill="#e6e7ea" d="M 163.5,376.5 C 163.573,378.027 162.906,379.027 161.5,379.5C 161.427,377.973 162.094,376.973 163.5,376.5 Z"/></g>
<g><path style="opacity:0.514" fill="#e2e4e7" d="M 382.5,378.5 C 381.738,380.262 380.404,381.262 378.5,381.5C 379.262,379.738 380.596,378.738 382.5,378.5 Z"/></g>
<g><path style="opacity:0.412" fill="#e0e2e6" d="M 127.5,379.5 C 129.027,379.427 130.027,380.094 130.5,381.5C 128.973,381.573 127.973,380.906 127.5,379.5 Z"/></g>
<g><path style="opacity:0.592" fill="#e7e8eb" d="M 295.5,380.5 C 297.404,380.738 298.738,381.738 299.5,383.5C 297.596,383.262 296.262,382.262 295.5,380.5 Z"/></g>
<g><path style="opacity:0.263" fill="#e9eaed" d="M 161.5,379.5 C 161.573,381.027 160.906,382.027 159.5,382.5C 159.427,380.973 160.094,379.973 161.5,379.5 Z"/></g>
<g><path style="opacity:0.008" fill="#f4f4f5" d="M 369.5,380.5 C 369.027,381.906 368.027,382.573 366.5,382.5C 366.973,381.094 367.973,380.427 369.5,380.5 Z"/></g>
<g><path style="opacity:0.886" fill="#dbdde1" d="M 120.5,381.5 C 122.23,382.026 123.564,383.026 124.5,384.5C 122.368,384.446 121.035,383.446 120.5,381.5 Z"/></g>
<g><path style="opacity:0.357" fill="#e3e5e7" d="M 130.5,381.5 C 132.027,381.427 133.027,382.094 133.5,383.5C 131.973,383.573 130.973,382.906 130.5,381.5 Z"/></g>
<g><path style="opacity:0.008" fill="#f6f5f6" d="M 366.5,382.5 C 366.027,383.906 365.027,384.573 363.5,384.5C 363.973,383.094 364.973,382.427 366.5,382.5 Z"/></g>
<g><path style="opacity:0.647" fill="#e2e4e7" d="M 376.5,382.5 C 376.027,383.906 375.027,384.573 373.5,384.5C 373.973,383.094 374.973,382.427 376.5,382.5 Z"/></g>
<g><path style="opacity:0.925" fill="#d9dde1" d="M 38.5,384.5 C 40.0481,384.821 40.7148,385.821 40.5,387.5C 39.5987,386.71 38.9321,385.71 38.5,384.5 Z"/></g>
<g><path style="opacity:0.294" fill="#e6e8ea" d="M 133.5,383.5 C 135.027,383.427 136.027,384.094 136.5,385.5C 134.973,385.573 133.973,384.906 133.5,383.5 Z"/></g>
<g><path style="opacity:0.208" fill="#ecedef" d="M 159.5,382.5 C 159.573,384.027 158.906,385.027 157.5,385.5C 157.427,383.973 158.094,382.973 159.5,382.5 Z"/></g>
<g><path style="opacity:0.655" fill="#e3e5e8" d="M 301.5,385.5 C 303.404,385.738 304.738,386.738 305.5,388.5C 303.596,388.262 302.262,387.262 301.5,385.5 Z"/></g>
<g><path style="opacity:0.706" fill="#dee0e4" d="M 373.5,384.5 C 373.027,385.906 372.027,386.573 370.5,386.5C 370.973,385.094 371.973,384.427 373.5,384.5 Z"/></g>
<g><path style="opacity:0.231" fill="#e9eaed" d="M 136.5,385.5 C 138.027,385.427 139.027,386.094 139.5,387.5C 137.973,387.573 136.973,386.906 136.5,385.5 Z"/></g>
<g><path style="opacity:0.325" fill="#e8eaec" d="M 296.5,388.5 C 295.036,387.595 293.702,387.595 292.5,388.5C 293.702,387.595 295.036,387.595 296.5,388.5 Z"/></g>
<g><path style="opacity:0.427" fill="#e1e3e7" d="M 338.5,384.5 C 339.906,384.973 340.573,385.973 340.5,387.5C 339.094,387.027 338.427,386.027 338.5,384.5 Z"/></g>
<g><path style="opacity:0.176" fill="#eeeff0" d="M 157.5,385.5 C 157.573,387.027 156.906,388.027 155.5,388.5C 155.427,386.973 156.094,385.973 157.5,385.5 Z"/></g>
<g><path style="opacity:0.204" fill="#ecedef" d="M 139.5,387.5 C 141.027,387.427 142.027,388.094 142.5,389.5C 140.973,389.573 139.973,388.906 139.5,387.5 Z"/></g>
<g><path style="opacity:0.463" fill="#eaebee" d="M 368.5,387.5 C 368.027,388.906 367.027,389.573 365.5,389.5C 365.973,388.094 366.973,387.427 368.5,387.5 Z"/></g>
<g><path style="opacity:0.014" fill="#edeef0" d="M 185.5,383.5 C 185.118,387.446 184.118,391.112 182.5,394.5C 182.63,390.475 183.63,386.809 185.5,383.5 Z"/></g>
<g><path style="opacity:0.173" fill="#eeeff0" d="M 142.5,389.5 C 144.027,389.427 145.027,390.094 145.5,391.5C 143.973,391.573 142.973,390.906 142.5,389.5 Z"/></g>
<g><path style="opacity:0.682" fill="#e7e8eb" d="M 191.5,381.5 C 191.086,387.813 189.752,393.813 187.5,399.5C 188.231,393.252 189.565,387.252 191.5,381.5 Z"/></g>
<g><path style="opacity:0.749" fill="#e3e5e8" d="M 307.5,390.5 C 309.749,391.08 311.415,392.413 312.5,394.5C 310.251,393.92 308.585,392.587 307.5,390.5 Z"/></g>
<g><path style="opacity:0.541" fill="#e6e7ea" d="M 365.5,389.5 C 365.027,390.906 364.027,391.573 362.5,391.5C 362.973,390.094 363.973,389.427 365.5,389.5 Z"/></g>
<g><path style="opacity:0.941" fill="#d8dbe0" d="M 292.5,388.5 C 292.88,390.698 292.213,392.365 290.5,393.5C 290.402,391.447 291.069,389.78 292.5,388.5 Z"/></g>
<g><path style="opacity:0.008" fill="#efeff0" d="M 299.5,391.5 C 301.027,391.427 302.027,392.094 302.5,393.5C 300.973,393.573 299.973,392.906 299.5,391.5 Z"/></g>
<g><path style="opacity:0.373" fill="#e3e5e8" d="M 154.5,390.5 C 154.573,392.027 153.906,393.027 152.5,393.5C 152.427,391.973 153.094,390.973 154.5,390.5 Z"/></g>
<g><path style="opacity:0.898" fill="#dbdee2" d="M 137.5,392.5 C 139.23,393.026 140.564,394.026 141.5,395.5C 139.368,395.446 138.035,394.446 137.5,392.5 Z"/></g>
<g><path style="opacity:0.29" fill="#e7e8ea" d="M 152.5,393.5 C 152.573,395.027 151.906,396.027 150.5,396.5C 150.427,394.973 151.094,393.973 152.5,393.5 Z"/></g>
<g><path style="opacity:0.008" fill="#f0f1f2" d="M 305.5,396.5 C 307.027,396.427 308.027,397.094 308.5,398.5C 306.973,398.573 305.973,397.906 305.5,396.5 Z"/></g>
<g><path style="opacity:0.702" fill="#e4e5e8" d="M 314.5,396.5 C 316.404,396.738 317.738,397.738 318.5,399.5C 316.596,399.262 315.262,398.262 314.5,396.5 Z"/></g>
<g><path style="opacity:0.902" fill="#d9dce0" d="M 287.5,400.5 C 287.88,402.698 287.213,404.365 285.5,405.5C 285.796,403.597 286.463,401.93 287.5,400.5 Z"/></g>
<g><path style="opacity:0.325" fill="#e9eaed" d="M 320.5,401.5 C 324.424,402.907 326.591,405.574 327,409.5C 326.617,410.056 326.117,410.389 325.5,410.5C 325.414,409.504 325.748,408.671 326.5,408C 324.294,405.963 322.294,403.797 320.5,401.5 Z"/></g>
<g><path style="opacity:0.004" fill="#f0f1f2" d="M 318.5,407.5 C 320.027,407.427 321.027,408.094 321.5,409.5C 319.973,409.573 318.973,408.906 318.5,407.5 Z"/></g>
<g><path style="opacity:0.157" fill="#e3e5e8" d="M 321.5,409.5 C 322.708,410.234 324.041,410.567 325.5,410.5C 325.083,411.124 324.416,411.457 323.5,411.5C 322.287,411.253 321.62,410.586 321.5,409.5 Z"/></g>
<g><path style="opacity:0.03" fill="#ececee" d="M 187.5,399.5 C 187.303,403.622 186.47,407.622 185,411.5C 183.274,412.576 181.441,412.743 179.5,412C 178.199,410.384 178.199,408.884 179.5,407.5C 179.35,411.161 180.85,412.161 184,410.5C 185.034,406.667 186.2,403.001 187.5,399.5 Z"/></g>
<g><path style="opacity:0.945" fill="#d9dce1" d="M 283.5,410.5 C 283.88,412.698 283.213,414.365 281.5,415.5C 281.402,413.447 282.069,411.78 283.5,410.5 Z"/></g>
<g><path style="opacity:0.204" fill="#ebebed" d="M 274.5,417.5 C 274.167,420.5 275.5,421.833 278.5,421.5C 277.399,422.598 276.066,422.765 274.5,422C 273.199,420.384 273.199,418.884 274.5,417.5 Z"/></g>
<g><path style="opacity:0.086" fill="#f6f6f6" d="M 280.5,417.5 C 280.771,419.38 280.104,420.713 278.5,421.5C 278.66,419.847 279.326,418.514 280.5,417.5 Z"/></g>
<g><path style="opacity:0.725" fill="#e2e5e8" d="M 76.5,430.5 C 79.0892,431.419 81.0892,433.086 82.5,435.5C 79.9108,434.581 77.9108,432.914 76.5,430.5 Z"/></g>
<g><path style="opacity:0.702" fill="#dfe2e6" d="M 87.5,440.5 C 89.0269,440.427 90.0269,441.094 90.5,442.5C 88.9731,442.573 87.9731,441.906 87.5,440.5 Z"/></g>
<g><path style="opacity:0.541" fill="#dadde2" d="M 115.5,460.5 C 117.027,460.427 118.027,461.094 118.5,462.5C 116.973,462.573 115.973,461.906 115.5,460.5 Z"/></g>
<g><path style="opacity:0.882" fill="#d9dde1" d="M 163.5,484.5 C 165.698,484.12 167.365,484.787 168.5,486.5C 166.597,486.204 164.93,485.537 163.5,484.5 Z"/></g>
</svg>
